<svg width="225" height="40" viewBox="0 0 225 40" fill="none" xmlns="http://www.w3.org/2000/svg">
    <path d="M25.6711 19.5558L43.3765 20.4165L46.9978 1.44854L25.6711 19.5558Z" fill="#978AB5"/>
    <path d="M25.6711 20.0092C31.5726 20.2961 37.4749 20.583 43.3765 20.8699C43.5648 20.879 43.7777 20.7263 43.8139 20.5373C45.021 14.2143 46.2281 7.89159 47.4348 1.56893C47.5219 1.11301 47.0304 0.827921 46.6771 1.12788L25.3504 19.2352C24.9043 19.6142 25.5488 20.2522 25.9917 19.8764L47.3184 1.76878C47.0656 1.62188 46.8131 1.47499 46.5607 1.32773C45.3623 7.6047 44.1639 13.8817 42.9659 20.1586C42.9293 20.3494 43.6902 19.9784 43.0461 19.9472L41.2514 19.8598C39.2482 19.7626 37.2443 19.665 35.241 19.5678C32.0511 19.4125 28.8611 19.2577 25.6711 19.1024C25.0864 19.0741 25.0893 19.9809 25.6711 20.0092Z" fill="#978AB5"/>
    <path d="M50.2167 1.44838L46.9977 18.4494H70.7389L50.2167 1.44838Z" fill="#6796BB"/>
    <path d="M49.7796 1.32778C48.7064 6.99504 47.6335 12.6619 46.5606 18.3288C46.5066 18.615 46.685 18.9026 46.9977 18.9026H70.7389C71.1078 18.9026 71.3754 18.3901 71.0595 18.1286C64.2189 12.4617 57.3779 6.79483 50.5373 1.12793C50.0905 0.757606 49.4452 1.3956 49.8961 1.76883C56.737 7.43609 63.5777 13.103 70.4183 18.7699C70.5253 18.5116 70.6319 18.2541 70.7389 17.9959H46.9977C47.1431 18.187 47.2893 18.3785 47.4348 18.57C48.508 12.9028 49.5809 7.23587 50.6538 1.56898C50.7622 0.997355 49.8885 0.753616 49.7796 1.32778Z" fill="#6796BB"/>
    <path d="M40.7609 22.8758L46.294 23.278L46.9976 20.4166H68.8273L40.7609 34.9473V22.8758Z" fill="#6796BB"/>
    <path d="M40.7609 23.3291C42.6052 23.4633 44.4496 23.5975 46.2939 23.7314C46.4891 23.7455 46.6857 23.5834 46.731 23.3988C46.9617 22.4608 47.1924 21.5232 47.423 20.5853C47.3378 20.9317 46.7408 20.87 47.2696 20.87H48.2068H55.5897H68.8273C68.7512 20.5882 68.6746 20.3067 68.5985 20.0253C59.2429 24.8684 49.8876 29.7124 40.532 34.5556L41.2143 34.9473V22.8757C41.2143 22.2911 40.3075 22.2911 40.3075 22.8757V34.9473C40.3075 35.3042 40.6891 35.4946 40.9897 35.3386C50.3453 30.4951 59.7006 25.6515 69.0562 20.808C69.4657 20.5961 69.264 19.9632 68.8273 19.9632H46.9976C46.8003 19.9632 46.6084 20.1011 46.5605 20.2958C46.4035 20.9349 46.2461 21.5744 46.0886 22.2131C46.0154 22.512 45.9421 22.8108 45.8685 23.1093C45.9787 22.6621 46.4767 22.838 45.6229 22.776C44.0027 22.6581 42.3818 22.5402 40.7609 22.4224C40.1773 22.3799 40.1813 23.2871 40.7609 23.3291Z" fill="#6796BB"/>
    <path d="M38.3466 22.775V34.243L30.1734 37.0852L36.3343 32.6337L34.9764 30.9961L22.7412 36.6702L33.3166 29.3139L31.9434 27.8725L12.3668 37.7264L29.9972 26.154L27.7843 24.1834L2.43304 38.9712L25.6712 22.3332L38.3466 22.775Z" fill="#6796BB"/>
    <path d="M37.8932 22.775V33.5825V34.185C37.8932 34.0054 38.483 33.7167 37.9458 33.9035C37.0144 34.227 36.083 34.5509 35.1516 34.8748C33.4523 35.466 31.7523 36.0569 30.053 36.6477C30.1695 36.9241 30.2855 37.2001 30.4023 37.4765L36.5632 33.025C36.8142 32.8437 36.8537 32.5524 36.655 32.313L35.297 30.6754C35.1599 30.5104 34.9212 30.5242 34.7475 30.6043C30.6693 32.4959 26.5906 34.3874 22.5124 36.2785C22.6651 36.5396 22.8174 36.8004 22.9698 37.0616C26.4949 34.6093 30.0204 32.1574 33.5455 29.7056C33.7874 29.5373 33.8505 29.217 33.6373 28.9936C33.1795 28.513 32.7214 28.0324 32.2637 27.5518C32.1172 27.398 31.8948 27.3904 31.7146 27.4811L12.1379 37.3347C12.2906 37.5958 12.443 37.857 12.5957 38.1178C18.4726 34.2604 24.3491 30.403 30.226 26.5457C30.4578 26.3937 30.5463 26.0372 30.3178 25.8337C29.5801 25.1765 28.8427 24.5196 28.1049 23.8628C27.9515 23.726 27.7393 23.6847 27.5554 23.7917C19.1051 28.7212 10.6545 33.6503 2.20456 38.5799C2.35689 38.8406 2.50923 39.1018 2.66193 39.3629C8.87216 34.9162 15.0824 30.4698 21.293 26.0234C22.5715 25.1079 23.85 24.1925 25.1286 23.277C25.3792 23.0974 25.6295 22.9179 25.8805 22.7384C25.763 22.8229 25.5881 22.7837 25.8768 22.7935C26.2029 22.8051 26.5286 22.8163 26.8543 22.828L38.3466 23.2284C38.9317 23.2487 38.9295 22.3419 38.3466 22.3216L26.8543 21.9212C26.0306 21.8922 25.6288 21.808 24.9777 22.2745C23.7536 23.1511 22.5291 24.0274 21.3049 24.9041L2.20456 38.5799C1.73739 38.9139 2.14761 39.6629 2.66193 39.3629C7.50875 36.5357 12.3552 33.7087 17.2017 30.8815C20.0805 29.2021 22.9585 27.5232 25.8373 25.8438C26.521 25.4452 27.2051 25.0463 27.8888 24.6473C27.9718 24.599 27.2635 24.3256 27.9631 24.9487C28.5344 25.4576 29.1053 25.9661 29.6769 26.4746C29.7074 26.2374 29.7382 26.0002 29.7687 25.7626C23.8914 29.62 18.0149 33.4773 12.1379 37.3347C11.6483 37.6564 12.073 38.3807 12.5957 38.1178C16.234 36.2861 19.8726 34.4548 23.5113 32.6235C25.7999 31.4716 28.089 30.3193 30.3776 29.1673L32.0015 28.3501C32.4313 28.1336 31.4766 28.0397 31.7958 28.3748C32.1959 28.7948 32.5963 29.2148 32.996 29.6345C33.0265 29.3973 33.0573 29.1601 33.0878 28.9225C29.5626 31.3744 26.0372 33.8266 22.5124 36.2785C22.0293 36.6147 22.4402 37.3071 22.9698 37.0616C25.443 35.9147 27.9163 34.7675 30.3896 33.6206C31.7686 32.9811 33.1483 32.3413 34.5277 31.7019L35.0272 31.4701C35.4258 31.2851 34.8781 31.5851 34.7022 31.3729C35.1396 31.8999 35.5767 32.4269 36.0137 32.9539C36.0442 32.7167 36.075 32.4795 36.1055 32.242C34.0518 33.7258 31.9982 35.2096 29.9446 36.6938C29.5558 36.9745 29.7741 37.7028 30.2939 37.5222C33.0185 36.5748 35.7428 35.6278 38.467 34.6804C38.6596 34.6133 38.8 34.4548 38.8 34.243V22.775C38.8 22.1903 37.8932 22.1903 37.8932 22.775Z" fill="#6796BB"/>
    <path d="M77 11.1978H78.2848V19.5967H86.5597V11.1978H87.8445V29.2797H86.5597V20.9062H78.2848V29.2797H77V11.1978Z" fill="#978AB5"/>
    <path d="M102.715 17.4476C102.715 16.7398 102.579 16.0731 102.307 15.4468C102.036 14.8212 101.666 14.2733 101.196 13.8039C100.727 13.3345 100.178 12.9638 99.5533 12.6925C98.927 12.4204 98.2603 12.2851 97.5525 12.2851C96.8274 12.2851 96.1525 12.4204 95.5269 12.6925C94.9006 12.9638 94.3564 13.3345 93.896 13.8039C93.4348 14.2733 93.0686 14.8212 92.7965 15.4468C92.5252 16.0731 92.3899 16.7398 92.3899 17.4476V21.1033H102.715V17.4476ZM92.3899 22.3882V29.2803H91.0804V17.4476C91.0804 16.5582 91.2486 15.7226 91.5864 14.9407C91.9235 14.1582 92.3854 13.475 92.9699 12.8898C93.5544 12.306 94.2421 11.8441 95.0328 11.507C95.8229 11.1692 96.6623 11.0003 97.5525 11.0003C98.4412 11.0003 99.2768 11.1692 100.059 11.507C100.841 11.8441 101.525 12.306 102.11 12.8898C102.694 13.475 103.155 14.1582 103.493 14.9407C103.83 15.7226 104 16.5582 104 17.4476V21.1033V22.3882V29.2803H102.715V22.3882H92.3899Z" fill="#978AB5"/>
    <path d="M108.248 19.5965H112.941C113.435 19.5965 113.896 19.5061 114.324 19.3252C114.753 19.1443 115.127 18.8924 115.448 18.571C115.769 18.2504 116.024 17.8759 116.214 17.4476C116.403 17.0194 116.498 16.5582 116.498 16.0641C116.498 15.5701 116.403 15.1097 116.214 14.6806C116.024 14.2531 115.769 13.8779 115.448 13.5565C115.127 13.2359 114.753 12.9802 114.324 12.7911C113.896 12.602 113.435 12.5071 112.941 12.5071H108.248V19.5965ZM106.963 11.1976H112.941C113.617 11.1976 114.246 11.3254 114.831 11.581C115.415 11.8367 115.925 12.182 116.362 12.6185C116.798 13.055 117.144 13.5692 117.4 14.1619C117.655 14.7546 117.783 15.3892 117.783 16.0641C117.783 16.6569 117.684 17.2212 117.486 17.7563C117.289 18.2915 117.008 18.7691 116.646 19.1892C116.284 19.6092 115.86 19.959 115.374 20.2386C114.889 20.5189 114.365 20.708 113.806 20.8074H113.88L117.511 29.2803H116.103L112.497 20.906H108.248V29.2803H106.963V11.1976Z" fill="#978AB5"/>
    <path d="M131.616 17.4476C131.616 16.7398 131.48 16.0731 131.208 15.4468C130.937 14.8212 130.567 14.2733 130.097 13.8039C129.628 13.3345 129.079 12.9638 128.454 12.6925C127.828 12.4204 127.161 12.2851 126.453 12.2851C125.728 12.2851 125.054 12.4204 124.428 12.6925C123.802 12.9638 123.257 13.3345 122.797 13.8039C122.336 14.2733 121.97 14.8212 121.698 15.4468C121.426 16.0731 121.291 16.7398 121.291 17.4476V21.1033H131.616V17.4476ZM121.291 22.3882V29.2803H119.981V17.4476C119.981 16.5582 120.15 15.7226 120.487 14.9407C120.825 14.1582 121.286 13.475 121.871 12.8898C122.455 12.306 123.143 11.8441 123.934 11.507C124.724 11.1692 125.563 11.0003 126.453 11.0003C127.342 11.0003 128.178 11.1692 128.96 11.507C129.742 11.8441 130.426 12.306 131.011 12.8898C131.595 13.475 132.056 14.1582 132.394 14.9407C132.731 15.7226 132.901 16.5582 132.901 17.4476V21.1033V22.3882V29.2803H131.616V22.3882H121.291Z" fill="#978AB5"/>
    <path d="M138.582 20.3377L137.668 19.4236L138.582 18.5095L145.894 11.2228H147.722L146.808 12.1122L139.496 19.4236L146.808 26.7358L149.352 29.2801H147.525L138.582 20.3377ZM136.384 11.2228H137.669V29.2801H136.384V11.2228Z" fill="#978AB5"/>
    <path d="M163.556 17.4476C163.556 16.7398 163.42 16.0731 163.148 15.4468C162.876 14.8212 162.506 14.2733 162.037 13.8039C161.568 13.3345 161.019 12.9638 160.394 12.6925C159.768 12.4204 159.101 12.2851 158.393 12.2851C157.668 12.2851 156.993 12.4204 156.368 12.6925C155.741 12.9638 155.197 13.3345 154.737 13.8039C154.276 14.2733 153.909 14.8212 153.637 15.4468C153.366 16.0731 153.231 16.7398 153.231 17.4476V21.1033H163.556V17.4476ZM153.231 22.3882V29.2803H151.921V17.4476C151.921 16.5582 152.089 15.7226 152.427 14.9407C152.764 14.1582 153.226 13.475 153.811 12.8898C154.395 12.306 155.083 11.8441 155.874 11.507C156.664 11.1692 157.503 11.0003 158.393 11.0003C159.282 11.0003 160.118 11.1692 160.9 11.507C161.682 11.8441 162.366 12.306 162.95 12.8898C163.535 13.475 163.996 14.1582 164.334 14.9407C164.671 15.7226 164.841 16.5582 164.841 17.4476V21.1033V22.3882V29.2803H163.556V22.3882H153.231Z" fill="#978AB5"/>
    <path d="M167.632 15.8419C167.632 15.1834 167.759 14.5578 168.015 13.9643C168.27 13.3716 168.615 12.8574 169.052 12.4209C169.488 11.9844 169.999 11.6383 170.583 11.3834C171.168 11.1278 171.798 11 172.473 11C173.363 11 174.178 11.219 174.919 11.6547C175.66 12.0913 176.244 12.6802 176.673 13.4209C177.084 12.6802 177.661 12.0913 178.402 11.6547C179.143 11.219 179.966 11 180.872 11C181.531 11 182.157 11.1278 182.75 11.3834C183.343 11.6383 183.857 11.9844 184.293 12.4209C184.729 12.8574 185.075 13.3716 185.331 13.9643C185.586 14.5578 185.713 15.1834 185.713 15.8419V29.28H184.404V15.8419C184.404 15.3478 184.314 14.8874 184.133 14.4584C183.951 14.0308 183.701 13.6556 183.379 13.335C183.059 13.0136 182.683 12.7587 182.255 12.5689C181.827 12.3798 181.366 12.2848 180.872 12.2848C180.378 12.2848 179.913 12.3798 179.477 12.5689C179.04 12.7587 178.661 13.0136 178.34 13.335C178.019 13.6556 177.768 14.0308 177.587 14.4584C177.405 14.8874 177.315 15.3478 177.315 15.8419V29.28H176.006V15.8419C176.006 15.3478 175.915 14.8874 175.734 14.4584C175.553 14.0308 175.302 13.6556 174.98 13.335C174.659 13.0136 174.284 12.7587 173.856 12.5689C173.429 12.3798 172.967 12.2848 172.473 12.2848C171.979 12.2848 171.514 12.3798 171.077 12.5689C170.641 12.7587 170.263 13.0136 169.941 13.335C169.62 13.6556 169.369 14.0308 169.188 14.4584C169.007 14.8874 168.916 15.3478 168.916 15.8419V29.28H167.632V15.8419Z" fill="#6796BB"/>
    <path d="M200.337 17.4476C200.337 16.7398 200.201 16.0731 199.929 15.4468C199.658 14.8212 199.288 14.2733 198.818 13.8039C198.349 13.3345 197.8 12.9638 197.175 12.6925C196.549 12.4204 195.882 12.2851 195.174 12.2851C194.449 12.2851 193.774 12.4204 193.149 12.6925C192.523 12.9638 191.978 13.3345 191.518 13.8039C191.057 14.2733 190.691 14.8212 190.419 15.4468C190.147 16.0731 190.012 16.7398 190.012 17.4476V21.1033H200.337V17.4476ZM190.012 22.3882V29.2803H188.702V17.4476C188.702 16.5582 188.871 15.7226 189.208 14.9407C189.545 14.1582 190.007 13.475 190.592 12.8898C191.176 12.306 191.864 11.8441 192.655 11.507C193.445 11.1692 194.284 11.0003 195.174 11.0003C196.063 11.0003 196.899 11.1692 197.681 11.507C198.463 11.8441 199.147 12.306 199.732 12.8898C200.316 13.475 200.777 14.1582 201.115 14.9407C201.452 15.7226 201.622 16.5582 201.622 17.4476V21.1033V22.3882V29.2803H200.337V22.3882H190.012Z" fill="#6796BB"/>
    <path d="M205.278 11.1977H206.562V29.2796H205.278V11.1977Z" fill="#6796BB"/>
    <path d="M210.513 11.2226H211.798V27.995H222V29.2798H211.155H210.513V11.2226Z" fill="#6796BB"/>
</svg>
